<?xml version="1.0" standalone="no"?>
<!DOCTYPE svg PUBLIC "-//W3C//DTD SVG 20010904//EN"
 "http://www.w3.org/TR/2001/REC-SVG-20010904/DTD/svg10.dtd">
<svg version="1.0" xmlns="http://www.w3.org/2000/svg"
 width="256.000000pt" height="256.000000pt" viewBox="0 0 256.000000 256.000000"
 preserveAspectRatio="xMidYMid meet">

<g transform="translate(0.000000,256.000000) scale(0.100000,-0.100000)"
fill="#000000" stroke="none">
<path d="M1191 2404 c-305 -82 -429 -421 -243 -665 202 -267 623 -223 765 78
29 63 32 76 32 173 0 98 -2 110 -32 173 -91 192 -317 296 -522 241z m224 -16
c64 -16 157 -73 209 -128 85 -91 127 -221 105 -330 -17 -86 -65 -173 -128
-233 -179 -171 -439 -163 -610 18 -90 95 -136 234 -112 339 56 249 289 395
536 334z"/>
<path d="M1290 2374 c0 -9 5 -14 12 -12 18 6 21 28 4 28 -9 0 -16 -7 -16 -16z"/>
<path d="M1248 2373 c7 -3 16 -2 19 1 4 3 -2 6 -13 5 -11 0 -14 -3 -6 -6z"/>
<path d="M1348 2373 c7 -3 16 -2 19 1 4 3 -2 6 -13 5 -11 0 -14 -3 -6 -6z"/>
<path d="M1435 2350 c28 -11 64 -27 80 -36 26 -14 28 -14 15 -1 -16 16 -112
57 -133 57 -7 -1 11 -10 38 -20z"/>
<path d="M1108 2334 c-39 -21 -35 -28 5 -8 37 19 44 24 31 24 -5 -1 -21 -8
-36 -16z"/>
<path d="M1173 2331 c-110 -41 -203 -139 -233 -245 -21 -75 -9 -191 25 -255
40 -73 130 -154 202 -181 85 -32 214 -26 301 14 81 38 162 122 192 203 32 85
26 207 -15 281 -40 74 -100 131 -175 166 -85 40 -215 47 -297 17z m262 -19
c235 -92 304 -367 139 -551 -52 -57 -141 -105 -218 -116 l-48 -7 4 79 c3 62
10 91 35 143 17 35 30 67 27 69 -2 2 -17 -25 -33 -60 l-30 -64 -3 120 -4 120
-3 -125 c-2 -121 -3 -124 -16 -82 -15 48 -44 97 -52 88 -4 -3 1 -14 9 -23 28
-34 58 -138 58 -203 l0 -63 -47 7 c-111 15 -216 91 -274 198 -31 58 -34 70
-34 148 1 99 22 152 92 229 96 108 261 147 398 93z"/>
<path d="M1272 2250 c-20 -38 -32 -72 -32 -97 0 -38 31 -103 50 -103 6 0 11
30 12 68 l2 67 5 -68 6 -69 22 24 c53 56 53 117 0 191 l-32 45 -33 -58z"/>
<path d="M1080 2211 c0 -6 4 -13 10 -16 6 -3 7 1 4 9 -7 18 -14 21 -14 7z"/>
<path d="M1496 2186 c-23 -49 -19 -59 5 -13 11 22 18 41 16 43 -2 3 -12 -11
-21 -30z"/>
<path d="M1060 2197 c0 -15 31 -69 37 -63 3 3 -4 20 -16 38 -11 18 -21 29 -21
25z"/>
<path d="M1521 2169 c-13 -17 -21 -32 -19 -35 3 -2 15 10 27 27 13 17 21 32
19 35 -3 2 -15 -10 -27 -27z"/>
<path d="M1057 2128 c15 -25 29 -45 31 -43 6 5 -26 61 -43 75 -9 8 -4 -7 12
-32z"/>
<path d="M1531 2129 c-31 -55 -23 -58 11 -3 15 24 24 44 19 44 -4 0 -18 -18
-30 -41z"/>
<path d="M1552 2113 c-23 -33 -72 -129 -72 -140 0 -4 18 25 39 64 21 40 44 80
51 88 7 8 10 15 7 15 -3 0 -14 -12 -25 -27z"/>
<path d="M1443 2098 c-25 -28 -20 -48 12 -48 27 0 48 22 43 47 -5 26 -31 27
-55 1z"/>
<path d="M1113 2094 c-7 -19 30 -59 46 -50 17 11 13 53 -5 60 -25 9 -34 7 -41
-10z"/>
<path d="M1181 2052 c-7 -14 -21 -22 -38 -22 -24 0 -25 -1 -10 -22 16 -25 42
-25 70 -1 21 19 21 24 3 48 -13 18 -14 18 -25 -3z"/>
<path d="M1394 2057 c-10 -26 0 -51 25 -64 28 -13 55 -4 65 23 5 13 1 16 -24
12 -19 -3 -30 0 -30 8 0 6 -7 17 -15 24 -12 10 -16 9 -21 -3z"/>
<path d="M1097 2015 c9 -19 18 -33 21 -31 4 5 -26 66 -33 66 -3 0 3 -16 12
-35z"/>
<path d="M1600 1995 c-13 -14 -53 -41 -88 -61 -112 -63 -172 -134 -171 -204
l0 -25 17 25 c32 47 80 95 128 129 45 31 42 27 -26 -40 -89 -88 -124 -128
-133 -151 -9 -25 2 -22 24 6 11 14 43 32 72 41 77 26 112 50 146 104 28 42 70
186 58 197 -2 2 -14 -7 -27 -21z"/>
<path d="M993 1964 c14 -117 82 -210 181 -246 33 -12 71 -33 84 -47 12 -13 22
-18 22 -11 0 21 -47 80 -119 149 l-66 63 65 -49 c36 -27 76 -66 90 -87 23 -36
25 -37 28 -16 6 36 -25 104 -65 144 -20 20 -63 50 -96 66 -33 16 -76 42 -95
57 l-35 26 6 -49z"/>
<path d="M1214 1996 c-3 -8 -17 -17 -30 -20 -32 -8 -29 -40 4 -44 32 -5 52 15
52 49 0 30 -17 39 -26 15z"/>
<path d="M1360 1987 c0 -28 29 -57 56 -57 20 0 44 17 44 32 0 10 -57 11 -63 1
-2 -5 -2 -2 0 6 4 15 -14 41 -28 41 -5 0 -9 -11 -9 -23z"/>
<path d="M1014 2263 c-25 -25 -58 -72 -74 -104 -31 -60 -53 -139 -40 -139 4 0
10 19 14 42 10 59 61 150 114 203 26 25 43 45 39 45 -4 0 -28 -21 -53 -47z"/>
<path d="M1596 2248 c56 -62 82 -108 100 -183 8 -33 13 -41 13 -24 2 65 -68
193 -131 239 -26 19 -22 12 18 -32z"/>
<path d="M1700 1996 c0 -9 7 -16 16 -16 17 0 14 22 -4 28 -7 2 -12 -3 -12 -12z"/>
<path d="M885 1991 c-6 -11 9 -23 19 -14 9 9 7 23 -3 23 -6 0 -12 -4 -16 -9z"/>
<path d="M905 1921 c7 -50 56 -151 88 -178 17 -15 17 -11 -4 17 -36 49 -57 91
-74 152 l-15 53 5 -44z"/>
<path d="M1695 1923 c-18 -102 -96 -210 -190 -264 -27 -16 -45 -29 -40 -29 14
0 73 37 120 76 47 38 111 151 121 212 8 52 -1 56 -11 5z"/>
<path d="M1043 1693 c20 -23 127 -83 148 -83 8 0 -10 11 -39 25 -29 13 -69 37
-90 52 -27 20 -32 22 -19 6z"/>
<path d="M1218 1603 c7 -3 16 -2 19 1 4 3 -2 6 -13 5 -11 0 -14 -3 -6 -6z"/>
<path d="M1297 1604 c-8 -8 1 -24 14 -24 5 0 9 7 9 15 0 15 -12 20 -23 9z"/>
<path d="M1993 2073 c15 -2 37 -2 50 0 12 2 0 4 -28 4 -27 0 -38 -2 -22 -4z"/>
<path d="M718 2063 c12 -2 30 -2 40 0 9 3 -1 5 -23 4 -22 0 -30 -2 -17 -4z"/>
<path d="M1827 2063 c18 -2 50 -2 70 0 21 2 7 4 -32 4 -38 0 -55 -2 -38 -4z"/>
<path d="M758 2023 c12 -2 32 -2 45 0 12 2 2 4 -23 4 -25 0 -35 -2 -22 -4z"/>
<path d="M1813 2023 c15 -2 39 -2 55 0 15 2 2 4 -28 4 -30 0 -43 -2 -27 -4z"/>
<path d="M1935 2020 c3 -5 8 -10 11 -10 2 0 4 5 4 10 0 6 -5 10 -11 10 -5 0
-7 -4 -4 -10z"/>
<path d="M583 1994 c-8 -20 8 -36 26 -25 15 10 8 41 -9 41 -6 0 -13 -7 -17
-16z"/>
<path d="M645 1990 c-4 -7 -3 -16 3 -22 14 -14 45 -2 40 15 -6 16 -34 21 -43
7z"/>
<path d="M707 1986 c-7 -16 1 -26 20 -26 7 0 13 9 13 20 0 23 -25 27 -33 6z"/>
<path d="M1857 1993 c-3 -5 -2 -15 3 -22 10 -17 43 -6 38 12 -6 15 -34 22 -41
10z"/>
<path d="M1925 1991 c-8 -15 3 -31 21 -31 9 0 14 7 12 17 -4 20 -24 28 -33 14z"/>
<path d="M1982 1983 c2 -10 10 -18 18 -18 8 0 16 8 18 18 2 12 -3 17 -18 17
-15 0 -20 -5 -18 -17z"/>
<path d="M518 1923 c12 -2 32 -2 45 0 12 2 2 4 -23 4 -25 0 -35 -2 -22 -4z"/>
<path d="M693 1923 c15 -2 39 -2 55 0 15 2 2 4 -28 4 -30 0 -43 -2 -27 -4z"/>
<path d="M1823 1923 c26 -2 67 -2 90 0 23 2 2 3 -48 3 -49 0 -68 -1 -42 -3z"/>
<path d="M2023 1923 c15 -2 37 -2 50 0 12 2 0 4 -28 4 -27 0 -38 -2 -22 -4z"/>
<path d="M1798 1893 c6 -2 18 -2 25 0 6 3 1 5 -13 5 -14 0 -19 -2 -12 -5z"/>
<path d="M1878 1883 c6 -2 18 -2 25 0 6 3 1 5 -13 5 -14 0 -19 -2 -12 -5z"/>
<path d="M1948 1883 c7 -3 16 -2 19 1 4 3 -2 6 -13 5 -11 0 -14 -3 -6 -6z"/>
<path d="M576 1521 c-3 -4 -2 -42 1 -84 5 -62 9 -77 22 -77 13 0 15 9 13 45
-3 28 0 45 7 45 6 0 11 -3 11 -7 1 -5 11 -21 24 -36 l23 -29 23 38 c21 33 25
35 31 18 4 -10 8 -31 8 -46 1 -21 6 -28 20 -28 17 0 19 8 17 79 -1 74 -3 80
-23 84 -17 3 -28 -5 -49 -36 l-26 -40 -32 38 c-31 36 -61 52 -70 36z"/>
<path d="M1050 1446 c0 -79 2 -86 20 -86 16 0 20 7 20 30 0 28 3 30 35 30 32
0 35 -2 35 -30 0 -23 4 -30 20 -30 18 0 20 7 20 80 0 73 -2 80 -20 80 -15 0
-20 -7 -20 -29 0 -21 -6 -30 -22 -35 -41 -10 -47 -7 -50 31 -2 27 -8 39 -20
41 -16 3 -18 -6 -18 -82z"/>
<path d="M1450 1521 c0 -13 51 -133 63 -148 23 -31 45 -13 71 58 30 82 32 98
10 95 -10 -2 -26 -26 -39 -62 -22 -56 -23 -58 -33 -34 -34 83 -44 100 -57 100
-8 0 -15 -4 -15 -9z"/>
<path d="M1666 1518 c-3 -7 -7 -46 -11 -85 -6 -69 -5 -73 14 -73 19 0 21 6 21
79 0 44 -5 83 -10 86 -6 3 -12 0 -14 -7z"/>
<path d="M1884 1521 c-2 -2 -4 -40 -4 -83 0 -71 2 -78 20 -78 13 0 20 7 20 20
0 32 28 36 51 6 11 -14 29 -26 40 -26 23 0 24 8 2 32 -15 17 -15 19 0 36 42
47 3 97 -75 97 -27 0 -52 -2 -54 -4z m103 -47 c8 -20 -11 -32 -43 -26 -15 3
-24 11 -24 23 0 25 58 27 67 3z"/>
<path d="M852 1447 c-18 -40 -32 -75 -32 -79 0 -15 38 -8 44 7 3 10 19 15 45
15 25 0 41 -5 45 -15 3 -8 15 -15 27 -15 24 0 24 0 -19 97 -23 53 -31 62 -52
62 -21 0 -30 -10 -58 -72z m68 14 c0 -5 3 -16 6 -25 4 -12 0 -16 -15 -16 -22
0 -25 8 -15 34 7 17 24 22 24 7z"/>
<path d="M1280 1440 c-40 -80 -40 -80 -16 -80 13 0 26 7 30 15 3 10 19 15 46
15 27 0 43 -5 46 -15 4 -8 15 -15 26 -15 23 0 20 17 -23 103 -41 81 -58 78
-109 -23z m70 21 c0 -5 3 -16 6 -25 4 -12 0 -16 -15 -16 -22 0 -25 8 -15 34 7
17 24 22 24 7z"/>
<path d="M1737 1468 c-11 -84 -9 -108 8 -108 8 0 15 9 15 20 0 11 7 20 15 20
8 0 19 -9 25 -20 6 -11 15 -20 20 -20 11 0 1 32 -14 42 -7 4 -1 17 14 33 20
21 22 30 14 53 -8 23 -16 27 -50 30 l-41 3 -6 -53z m62 9 c13 -16 5 -27 -21
-27 -18 0 -25 20 -11 33 10 10 19 8 32 -6z"/>
<path d="M840 1270 c-20 -39 -16 -52 8 -28 10 10 17 10 32 0 11 -7 20 -9 20
-5 0 16 -25 73 -32 73 -4 0 -17 -18 -28 -40z m35 0 c3 -5 -1 -10 -10 -10 -9 0
-13 5 -10 10 3 6 8 10 10 10 2 0 7 -4 10 -10z"/>
<path d="M936 1294 c-9 -8 -16 -19 -16 -24 0 -11 29 -40 40 -40 20 0 40 13 40
26 0 8 -10 14 -22 14 -19 0 -20 -2 -8 -11 12 -8 11 -10 -5 -7 -27 4 -25 32 3
36 12 2 20 8 17 13 -9 14 -32 11 -49 -7z"/>
<path d="M1030 1268 c0 -31 3 -39 10 -28 7 12 12 12 22 2 18 -18 23 -15 25 20
3 33 -9 48 -39 48 -14 0 -18 -9 -18 -42z m40 12 c0 -5 -7 -10 -15 -10 -8 0
-15 5 -15 10 0 6 7 10 15 10 8 0 15 -4 15 -10z"/>
<path d="M1126 1291 c-19 -21 -12 -48 15 -56 38 -12 65 35 37 63 -17 17 -32
15 -52 -7z m49 -21 c0 -8 -10 -16 -22 -18 -18 -3 -23 2 -23 18 0 16 5 21 23
18 12 -2 22 -10 22 -18z"/>
<path d="M1277 1273 c-8 -21 -13 -40 -10 -43 3 -3 8 1 10 8 6 15 35 16 51 0
16 -16 15 -5 -2 37 -19 45 -30 44 -49 -2z m33 -3 c0 -5 -4 -10 -10 -10 -5 0
-10 5 -10 10 0 6 5 10 10 10 6 0 10 -4 10 -10z"/>
<path d="M1372 1298 c-27 -27 -2 -73 35 -66 23 4 30 38 8 38 -9 0 -13 -4 -10
-10 3 -5 -1 -10 -9 -10 -9 0 -16 9 -16 20 0 15 7 20 26 20 14 0 23 4 19 10 -8
14 -38 13 -53 -2z"/>
<path d="M1460 1270 c0 -38 2 -40 30 -40 35 0 41 19 8 21 -17 1 -19 2 -5 6 9
2 17 8 17 13 0 5 -8 11 -17 13 -14 4 -12 5 5 6 33 2 27 21 -8 21 -28 0 -30 -2
-30 -40z"/>
<path d="M1551 1268 c1 -24 4 -33 6 -20 5 27 19 28 35 2 19 -30 28 -24 28 20
0 22 -4 40 -10 40 -5 0 -10 -10 -10 -22 l-1 -23 -18 23 c-27 31 -31 28 -30
-20z"/>
<path d="M1650 1291 c-5 -11 -7 -26 -4 -35 7 -18 39 -30 54 -21 17 11 11 22
-12 21 -30 -1 -30 28 0 32 12 2 20 8 17 13 -10 16 -44 10 -55 -10z"/>
<path d="M1744 1285 c9 -13 16 -31 16 -40 0 -23 17 -18 23 8 2 12 8 31 12 42
8 19 8 19 -12 2 -18 -16 -21 -16 -26 -2 -4 8 -12 15 -18 15 -7 0 -6 -9 5 -25z"/>
<path d="M673 1263 c20 -2 54 -2 75 0 20 2 3 4 -38 4 -41 0 -58 -2 -37 -4z"/>
<path d="M1888 1263 c23 -2 59 -2 80 0 20 2 1 4 -43 4 -44 0 -61 -2 -37 -4z"/>
<path d="M1100 904 c-52 -13 -223 -53 -380 -89 -157 -36 -373 -86 -480 -111
-107 -24 -205 -47 -217 -49 l-21 -5 -1 -325 -1 -325 1280 0 1280 0 0 86 c0 74
-2 85 -16 80 -9 -3 -18 -6 -20 -6 -3 0 -3 -4 1 -9 3 -5 -5 -17 -17 -25 -25
-18 -63 -22 -53 -5 4 6 14 8 22 5 8 -3 11 -1 8 4 -3 5 12 21 35 36 29 19 40
34 40 51 0 20 -4 24 -17 19 -15 -6 -15 -5 1 13 10 11 16 29 14 42 l-3 22 -30
-25 c-16 -14 -36 -23 -44 -20 -8 2 -11 1 -9 -4 3 -5 -4 -18 -15 -29 -11 -11
-17 -15 -13 -8 3 6 -1 13 -11 15 -13 3 -7 10 24 27 23 13 43 22 46 20 8 -7 57
59 57 77 0 15 -4 14 -27 -8 -32 -29 -150 -98 -140 -81 4 6 43 35 87 65 49 32
80 60 80 71 0 9 -4 17 -8 17 -4 0 -61 -36 -127 -80 -123 -83 -134 -86 -135
-30 0 15 -3 20 -8 13 -4 -6 -7 22 -8 62 l-1 74 38 6 c29 5 37 10 32 23 -4 14
-3 15 5 2 15 -20 8 -27 -33 -34 -19 -4 -35 -11 -35 -15 0 -13 123 25 198 61
35 16 66 28 68 25 7 -7 -126 -64 -191 -82 -33 -10 -64 -22 -70 -28 -7 -7 -4
-8 10 -2 11 4 34 11 50 15 47 13 117 35 167 55 41 15 46 21 46 46 -1 17 -7 30
-17 32 -13 4 -13 5 2 6 11 1 17 9 17 27 0 20 -4 25 -16 20 -9 -3 -21 -6 -27
-6 -7 0 -6 -4 3 -10 17 -11 4 -12 -24 -1 -15 6 -10 9 23 19 22 7 41 17 41 23
0 6 -6 8 -12 6 -34 -14 -198 -67 -235 -77 -23 -6 -49 -17 -57 -26 -13 -13 -20
-10 -56 30 -28 30 -61 52 -106 70 -74 30 -114 32 -174 11 -23 -8 -47 -12 -53
-8 -6 4 -7 1 -2 -8 6 -11 5 -11 -5 -2 -7 6 -9 17 -4 24 4 7 8 31 8 53 1 36 4
40 26 40 27 0 52 26 47 48 -2 7 -2 10 0 6 10 -18 23 -7 14 11 -12 22 5 41 38
44 12 1 21 4 21 8 0 4 7 15 16 23 10 11 11 16 3 16 -19 0 -303 -75 -532 -142
-115 -33 -210 -58 -212 -56 -1 2 -16 48 -32 103 -19 64 -34 100 -44 101 -7 1
-57 -9 -109 -22z m-309 -259 c63 -23 117 -79 135 -141 27 -95 -20 -189 -115
-230 -40 -17 -52 -18 -31 -3 12 9 12 10 -3 5 -10 -3 -24 -6 -30 -6 -8 0 -7 -3
1 -9 19 -12 -53 -22 -102 -14 -33 5 -36 8 -21 14 11 4 39 5 63 2 27 -3 42 -1
42 6 0 6 -5 11 -11 11 -6 0 -1 8 12 18 17 14 22 28 21 57 -2 43 9 58 73 109
39 30 39 30 -12 -30 -56 -64 -75 -108 -23 -52 29 32 29 31 -5 -21 -40 -60 -42
-71 -17 -71 16 0 55 20 39 20 -4 0 8 14 27 31 19 16 38 39 41 50 4 11 10 17
14 15 14 -9 -5 92 -22 118 -10 15 -16 30 -13 35 3 5 -4 17 -17 27 l-22 19 20
-24 20 -24 -27 18 c-15 9 -26 20 -24 24 3 4 -26 8 -64 9 -81 4 -148 -20 -175
-62 -10 -14 -20 -24 -24 -22 -8 5 -13 -81 -6 -120 3 -17 22 -48 42 -70 20 -21
36 -42 35 -45 -1 -4 8 -4 20 -1 15 4 19 2 13 -7 -4 -8 -17 -10 -32 -6 -17 4
-23 2 -18 -6 5 -8 2 -8 -11 -1 -35 19 -66 54 -85 96 -50 111 9 234 133 277 65
23 103 23 159 4z m1249 3 c60 -16 90 -30 85 -39 -6 -9 29 -31 37 -23 9 9 59
-58 54 -72 -3 -8 0 -13 7 -11 7 1 11 -6 9 -17 -2 -10 1 -15 6 -12 20 12 31
-105 12 -134 -9 -13 -10 -13 -10 0 0 12 -2 12 -9 2 -4 -7 -6 11 -3 41 3 41 -1
63 -17 95 -24 48 -26 56 -8 46 7 -4 9 -3 4 2 -5 5 -12 8 -15 8 -4 -1 -25 14
-46 32 -42 36 -90 54 -143 54 -33 0 -43 -13 -21 -26 6 -4 8 -3 5 4 -8 12 73 4
88 -9 5 -6 4 -9 -3 -9 -7 0 -12 -9 -12 -20 0 -11 -4 -20 -9 -20 -5 0 -12 -12
-16 -27 l-6 -26 -18 30 c-11 16 -31 39 -46 51 -15 12 -24 26 -20 32 8 13 -31
13 -57 -1 -15 -8 -22 -8 -28 1 -5 8 -17 3 -41 -16 l-34 -28 24 27 c31 34 106
71 131 64 11 -3 20 -1 20 3 0 11 35 10 80 -2z m-190 -12 c0 -2 -7 -7 -16 -10
-8 -3 -12 -2 -9 4 6 10 25 14 25 6z m627 -32 c21 -6 20 -8 -15 -25 -20 -11
-71 -29 -112 -40 -69 -19 -121 -44 -73 -35 11 2 26 0 34 -6 11 -8 10 -9 -3 -4
-10 3 -18 1 -18 -4 0 -20 -27 -9 -38 15 -10 21 -9 25 6 25 23 0 177 46 199 59
27 16 12 13 -52 -9 -32 -11 -65 -20 -74 -19 -9 0 13 11 49 24 77 28 69 26 97
19z m-1798 -25 c-6 -12 -9 -38 -6 -58 6 -33 5 -35 -8 -17 -8 11 -15 28 -15 39
0 24 18 57 31 57 6 0 5 -8 -2 -21z m1245 4 c-4 -10 -8 -35 -9 -55 0 -37 -8
-48 -20 -28 -4 6 -10 8 -14 5 -5 -2 -16 3 -24 13 -15 17 -15 20 -1 41 25 35
83 55 68 24z m-65 4 c-2 -1 -13 -9 -24 -17 -19 -14 -19 -14 -6 3 7 9 18 17 24
17 6 0 8 -1 6 -3z m665 -23 c10 -4 -3 -15 -42 -35 -31 -16 -58 -29 -59 -29 -1
0 -7 9 -13 20 -7 14 -7 20 0 20 5 0 10 -7 10 -15 0 -12 8 -11 45 7 24 12 42
25 39 30 -6 10 -1 10 20 2z m-1721 -32 c-3 -12 -9 -22 -14 -22 -12 0 -11 7 3
30 15 24 19 21 11 -8z m-93 -23 c0 -44 -14 -45 -24 -3 -6 23 4 43 22 44 1 0 2
-18 2 -41z m1454 -42 c-15 -18 -32 -31 -37 -29 -6 2 -14 -3 -19 -10 -7 -9 -8
-6 -5 10 4 19 2 22 -14 17 -11 -4 -25 0 -34 9 -23 22 -18 32 5 11 15 -14 23
-16 32 -7 13 13 -8 46 -23 36 -5 -3 -9 -1 -9 5 0 23 27 15 43 -13 10 -17 16
-24 14 -16 -2 8 2 28 11 45 l15 29 24 -28 23 -28 -26 -31z m-1533 46 l24 -28
-29 25 c-24 21 -28 22 -22 6 6 -16 4 -17 -9 -6 -13 11 -13 15 -3 21 7 5 13 9
14 9 0 0 11 -12 25 -27z m159 -16 c11 3 10 0 -3 -10 -14 -11 -15 -16 -5 -21 7
-3 0 -4 -16 -3 -16 1 -32 9 -34 17 -5 13 -3 13 12 1 16 -13 17 -12 11 15 -5
25 -5 27 7 13 7 -9 20 -14 28 -12z m280 13 c0 -5 -2 -10 -4 -10 -3 0 -8 5 -11
10 -3 6 -1 10 4 10 6 0 11 -4 11 -10z m908 -21 c-3 -8 -7 -3 -11 10 -4 17 -3
21 5 13 5 -5 8 -16 6 -23z m400 6 c-3 -3 -9 2 -12 12 -6 14 -5 15 5 6 7 -7 10
-15 7 -18z m27 5 c3 -5 1 -10 -4 -10 -6 0 -11 5 -11 10 0 6 2 10 4 10 3 0 8
-4 11 -10z m-1764 -20 c4 0 5 -8 2 -17 -6 -16 -5 -16 10 -4 17 14 23 5 9 -15
-7 -10 -42 -27 -42 -20 0 3 -3 12 -7 22 -5 13 -3 15 8 9 8 -5 11 -5 6 1 -5 5
-13 10 -18 10 -19 3 -20 4 -14 15 4 6 14 8 22 5 8 -3 19 -6 24 -6z m1548 -42
c0 -31 -1 -31 -10 -10 -5 13 -7 28 -3 33 10 16 14 9 13 -23z m-263 6 c18 -14
18 -14 -6 -3 -31 14 -36 19 -24 19 6 0 19 -7 30 -16z m-1156 2 c0 -2 -7 -7
-16 -10 -8 -3 -12 -2 -9 4 6 10 25 14 25 6z m1017 -63 c-2 -16 -4 -5 -4 22 0
28 2 40 4 28 2 -13 2 -35 0 -50z m68 25 c19 -22 19 -22 -10 2 -48 40 -51 43
-30 32 11 -6 29 -21 40 -34z m211 22 c9 0 12 -5 9 -10 -8 -13 -35 6 -34 24 0
7 2 6 6 -1 2 -7 11 -13 19 -13z m-1639 4 c-3 -3 -12 -4 -19 -1 -8 3 -5 6 6 6
11 1 17 -2 13 -5z m1559 -5 c3 -6 1 -16 -5 -22 -9 -9 -10 -7 -5 7 5 13 4 17
-4 12 -6 -3 -13 -2 -17 4 -3 5 1 10 9 10 8 0 18 -5 22 -11z m-1609 -5 c-3 -3
-12 -4 -19 -1 -8 3 -5 6 6 6 11 1 17 -2 13 -5z m255 -34 c32 -12 60 -25 63
-31 6 -9 -6 -5 -77 25 -21 9 -38 12 -38 7 0 -6 5 -13 10 -16 6 -3 10 -11 10
-17 0 -19 -28 12 -39 44 -9 24 -8 28 2 20 7 -6 38 -20 69 -32z m1300 5 c0 -5
-5 -10 -11 -12 -8 -1 -7 0 0 4 8 4 7 8 -2 15 -11 8 -11 9 -1 6 8 -2 14 -8 14
-13z m153 -5 c-3 -5 -12 -10 -18 -10 -7 0 -6 4 3 10 19 12 23 12 15 0z m122
-12 c-3 -8 -6 -5 -6 6 -1 11 2 17 5 13 3 -3 4 -12 1 -19z m-1480 -20 c-3 -7
-5 -2 -5 12 0 14 2 19 5 13 2 -7 2 -19 0 -25z m1108 12 c10 -11 16 -20 13 -20
-3 0 -13 9 -23 20 -10 11 -16 20 -13 20 3 0 13 -9 23 -20z m-1154 -31 c23 -11
39 -22 36 -25 -2 -2 -24 7 -48 21 -53 30 -44 33 12 4z m1346 -1 c-3 -8 -6 -5
-6 6 -1 11 2 17 5 13 3 -3 4 -12 1 -19z m164 -11 c-10 -9 -11 -8 -5 6 3 10 9
15 12 12 3 -3 0 -11 -7 -18z m-371 -32 c0 -5 -5 -3 -10 5 -5 8 -10 20 -10 25
0 6 5 3 10 -5 5 -8 10 -19 10 -25z m282 -2 c-11 -21 -22 -45 -26 -53 -3 -8 -4
-2 -1 14 6 26 32 76 41 76 3 0 -4 -17 -14 -37z m-982 12 c9 -11 10 -19 1 -28
-8 -10 -7 -17 1 -25 6 -6 9 -15 5 -19 -4 -4 -13 -1 -19 5 -18 18 -38 15 -31
-4 4 -12 1 -15 -13 -12 -26 5 -39 85 -15 91 34 9 59 6 71 -8z m545 -5 c3 -5 1
-10 -4 -10 -6 0 -11 5 -11 10 0 6 2 10 4 10 3 0 8 -4 11 -10z m345 -15 c13
-14 21 -25 18 -25 -2 0 -15 11 -28 25 -13 14 -21 25 -18 25 2 0 15 -11 28 -25z
m-1005 5 c3 -5 1 -10 -5 -10 -6 0 -9 -4 -6 -9 8 -13 -4 -42 -14 -36 -7 4 -7
49 -1 63 3 6 20 1 26 -8z m610 1 c3 -5 1 -12 -5 -16 -5 -3 -10 1 -10 9 0 18 6
21 15 7z m-661 -28 c4 -16 9 -36 12 -45 3 -11 0 -18 -9 -18 -13 0 -27 39 -27
76 0 25 18 15 24 -13z m-61 -44 c-12 -45 -27 -46 -58 -4 -34 43 -24 61 10 20
19 -24 24 -26 25 -12 0 10 5 28 12 40 10 18 13 19 16 5 2 -9 -1 -31 -5 -49z
m1107 41 c21 -11 41 -24 45 -29 4 -8 -77 32 -94 46 -13 10 15 0 49 -17z
m-1208 -54 c18 -23 24 -37 17 -42 -6 -3 -15 -2 -21 4 -11 11 -39 5 -50 -12 -4
-6 -10 -8 -13 -4 -10 10 15 88 28 88 7 0 24 -15 39 -34z m-104 -26 c8 -32 7
-40 -4 -40 -8 0 -14 7 -14 15 0 17 -9 19 -29 6 -7 -5 -11 -13 -7 -19 6 -10
-11 -29 -19 -21 -1 2 -6 23 -10 47 -4 28 -3 42 4 42 6 0 11 -7 11 -16 0 -11 5
-14 16 -10 9 3 18 6 20 6 2 0 4 7 4 15 0 30 18 14 28 -25z m-126 -20 c18 -25
23 -42 17 -46 -6 -4 -15 -1 -19 6 -7 11 -13 10 -34 -3 -34 -23 -37 -22 -30 11
11 44 23 72 31 72 5 -1 20 -18 35 -40z m-108 8 c12 -39 14 -78 5 -78 -6 0 -13
9 -16 20 -5 19 -6 19 -18 4 -8 -12 -14 -14 -19 -6 -13 21 -23 13 -18 -13 2
-14 0 -25 -6 -25 -14 0 -31 84 -19 89 5 2 14 -2 20 -8 17 -17 35 -13 42 9 7
22 24 27 29 8z m568 -10 c-2 -10 -6 -18 -8 -18 -2 0 -8 8 -13 18 -7 14 -6 18
8 18 12 0 17 -6 13 -18z m78 18 c0 -2 -9 -6 -20 -9 -11 -3 -18 -1 -14 4 5 9
34 13 34 5z m-127 -13 c-18 -7 -16 -21 5 -26 13 -4 11 -5 -5 -6 -17 -1 -23 5
-23 19 0 13 6 20 18 19 10 0 12 -3 5 -6z m-33 -37 c0 -4 -6 -6 -14 -3 -8 3
-17 1 -20 -6 -2 -7 -5 -2 -5 10 -1 12 5 23 12 26 12 4 27 -10 27 -27z m-66 2
c-1 -13 -3 -25 -3 -28 -2 -9 -21 25 -21 38 0 6 6 12 13 12 8 0 13 -9 11 -22z
m1079 15 c-7 -2 -19 -2 -25 0 -7 3 -2 5 12 5 14 0 19 -2 13 -5z m-1134 -20
c-12 -15 -12 -16 4 -10 9 3 17 2 17 -3 0 -14 -15 -19 -29 -10 -16 9 -8 40 10
40 8 0 7 -5 -2 -17z m-33 -14 c3 -6 0 -15 -7 -20 -22 -14 -28 -11 -22 11 6 22
18 26 29 9z m-76 -19 c0 -11 -6 -20 -14 -20 -18 0 -29 16 -21 30 11 18 35 11
35 -10z m-52 -15 c3 -10 0 -15 -7 -11 -6 4 -11 1 -12 -6 0 -7 -4 -4 -8 7 -5
11 -6 24 -4 28 8 13 28 2 31 -18z m-65 -7 c-4 -19 -3 -20 6 -8 7 9 11 10 11 3
0 -17 -17 -25 -25 -13 -4 6 -4 17 -1 25 8 23 15 18 9 -7z m-41 -29 c-22 -8
-25 -5 -17 21 6 20 7 21 20 3 12 -15 11 -19 -3 -24z"/>
<path d="M698 643 c12 -2 30 -2 40 0 9 3 -1 5 -23 4 -22 0 -30 -2 -17 -4z"/>
<path d="M597 619 c-9 -6 -15 -14 -13 -18 3 -5 -6 -19 -19 -31 -25 -23 -36
-15 -13 8 7 7 9 12 5 12 -4 0 -18 -17 -31 -37 -23 -34 -24 -43 -16 -88 l9 -50
-3 50 c-4 50 8 90 23 81 4 -3 21 8 36 24 16 17 25 30 19 30 -5 1 2 7 16 15 14
8 21 14 15 14 -5 0 -18 -4 -28 -10z"/>
<path d="M855 590 c10 -11 20 -20 23 -20 3 0 -3 9 -13 20 -10 11 -20 20 -23
20 -3 0 3 -9 13 -20z"/>
<path d="M896 536 c5 -13 4 -17 -4 -12 -8 5 -10 2 -5 -10 6 -15 7 -15 16 1 6
11 5 21 -3 28 -8 9 -9 7 -4 -7z"/>
<path d="M905 431 c0 -62 12 -62 15 -1 3 48 1 60 -7 60 -5 0 -8 -27 -8 -59z"/>
<path d="M493 445 c0 -22 2 -30 4 -17 2 12 2 30 0 40 -3 9 -5 -1 -4 -23z"/>
<path d="M506 395 c-7 -20 14 -62 47 -94 35 -32 56 -17 24 18 -14 14 -34 41
-45 59 -15 26 -21 30 -26 17z m63 -79 c25 -27 25 -28 3 -17 -13 7 -32 27 -42
44 -24 39 -27 61 -3 27 9 -14 28 -38 42 -54z"/>
<path d="M855 352 c-54 -64 -31 -79 25 -16 14 16 17 22 8 15 -20 -15 -25 -2
-6 17 6 6 10 13 7 15 -2 2 -17 -12 -34 -31z m5 -27 c-7 -8 -18 -15 -24 -15 -6
0 -2 7 8 15 25 19 32 19 16 0z"/>
<path d="M1910 630 c-12 -8 -11 -10 8 -10 12 0 22 5 22 10 0 13 -11 13 -30 0z"/>
<path d="M2045 625 c33 -7 62 -11 63 -10 7 6 -72 25 -98 24 -14 0 2 -7 35 -14z"/>
<path d="M2160 576 c0 -2 8 -10 18 -17 15 -13 16 -12 3 4 -13 16 -21 21 -21
13z"/>
<path d="M2240 402 l5 -57 3 49 c2 27 0 52 -5 57 -4 4 -6 -18 -3 -49z"/>
<path d="M1065 290 c-3 -5 3 -10 14 -10 12 0 21 5 21 10 0 6 -6 10 -14 10 -8
0 -18 -4 -21 -10z"/>
<path d="M750 200 c0 -5 5 -10 11 -10 5 0 7 5 4 10 -3 6 -8 10 -11 10 -2 0 -4
-4 -4 -10z"/>
<path d="M520 150 c0 -5 5 -10 10 -10 6 0 10 5 10 10 0 6 -4 10 -10 10 -5 0
-10 -4 -10 -10z"/>
<path d="M680 90 c0 -5 5 -10 10 -10 6 0 10 5 10 10 0 6 -4 10 -10 10 -5 0
-10 -4 -10 -10z"/>
<path d="M2532 855 c0 -5 6 -26 13 -45 l13 -35 1 38 c1 21 -3 36 -8 33 -5 -4
-12 0 -14 6 -3 7 -5 9 -5 3z"/>
<path d="M2515 485 c-16 -8 -68 -26 -115 -41 -76 -25 -110 -43 -110 -57 0 -3
24 0 54 7 79 19 216 77 216 93 0 16 -6 15 -45 -2z"/>
</g>
</svg>
